Coordinates
version=1
nRows=7
nColumns=40
inDegrees=yes

Units are S.I. units (second, meters, Newtons, ...)
If the header above contains a line with 'inDegrees', this indicates whether rotational values are in degrees (yes) or radians (no).

endheader
time	pelvis_tilt	pelvis_list	pelvis_rotation	pelvis_tx	pelvis_ty	pelvis_tz	hip_flexion_r	hip_adduction_r	hip_rotation_r	knee_angle_r	knee_angle_r_beta	ankle_angle_r	subtalar_angle_r	mtp_angle_r	hip_flexion_l	hip_adduction_l	hip_rotation_l	knee_angle_l	knee_angle_l_beta	ankle_angle_l	subtalar_angle_l	mtp_angle_l	lumbar_extension	lumbar_bending	lumbar_rotation	arm_flex_r	arm_add_r	arm_rot_r	elbow_flex_r	pro_sup_r	wrist_flex_r	wrist_dev_r	arm_flex_l	arm_add_l	arm_rot_l	elbow_flex_l	pro_sup_l	wrist_flex_l	wrist_dev_l
      1.21000000	      0.86535806	      7.53368150	    -89.68762879	      0.28132645	      0.96350308	      0.52563221	     25.93755409	     -3.95476970	     -3.05538863	     68.21407074	      1.19056013	     -8.78757737	      0.00000000	      0.00000000	     18.01366758	      4.73511275	     -1.34324145	     16.78277162	      0.29291462	      1.12521524	      0.00000000	      0.00000000	      2.75223730	     -1.39004379	      1.26409397	      0.00000000	      0.00000000	      0.00000000	      0.00000000	      0.00000000	      0.00000000	      0.00000000	      0.00000000	      0.00000000	      0.00000000	      0.00000000	      0.00000000	      0.00000000	      0.00000000
      1.22000000	      0.58661243	      7.51051081	    -89.67915140	      0.28224117	      0.96449206	      0.53310461	     27.12205544	     -3.67368182	     -3.20702941	     67.94303109	      1.18582960	     -7.42866845	      0.00000000	      0.00000000	     17.29289302	      4.52969287	     -1.17617991	     16.42353273	      0.28664472	      1.30642590	      0.00000000	      0.00000000	      2.58952779	     -1.05307832	      1.05979195	      0.00000000	      0.00000000	      0.00000000	      0.00000000	      0.00000000	      0.00000000	      0.00000000	      0.00000000	      0.00000000	      0.00000000	      0.00000000	      0.00000000	      0.00000000	      0.00000000
      1.23000000	      0.32338861	      7.48711590	    -89.67373694	      0.28311542	      0.96543104	      0.54055852	     28.20512717	     -3.40235083	     -3.37425985	     67.32564743	      1.17505422	     -6.18703459	      0.00000000	      0.00000000	     16.56725029	      4.33325916	     -1.02970991	     16.04830385	      0.28009574	      1.48456550	      0.00000000	      0.00000000	      2.41588144	     -0.72928767	      0.86401771	      0.00000000	      0.00000000	      0.00000000	      0.00000000	      0.00000000	      0.00000000	      0.00000000	      0.00000000	      0.00000000	      0.00000000	      0.00000000	      0.00000000	      0.00000000	      0.00000000
      1.24000000	      0.07597975	      7.43037474	    -89.66422479	      0.28393554	      0.96633531	      0.54807923	     29.14244697	     -3.13706830	     -3.55196573	     66.38289567	      1.15860010	     -5.01133759	      0.00000000	      0.00000000	     15.78980424	      4.14770910	     -0.90166563	     15.64836256	      0.27311545	      1.65850286	      0.00000000	      0.00000000	      2.21880146	     -0.43655409	      0.68074711	      0.00000000	      0.00000000	      0.00000000	      0.00000000	      0.00000000	      0.00000000	      0.00000000	      0.00000000	      0.00000000	      0.00000000	      0.00000000	      0.00000000	      0.00000000	      0.00000000
      1.25000000	      0.01943605	      7.52735925	    -89.64516885	      0.28488322	      0.96682765	      0.55538757	     30.18605376	     -3.12842685	     -3.74239208	     65.15368165	      1.13714626	     -4.52819629	     -0.00000000	     -0.00000000	     15.32645026	      4.15053454	     -0.97915238	     15.51570976	      0.27080022	      1.78160619	      0.00000000	      0.00000000	      2.17000407	     -0.36067542	      0.49455871	     -0.00000000	     -0.00000000	      0.00000000	      0.00000000	      0.00000000	      0.00000000	      0.00000000	      0.00000000	      0.00000000	     -0.00000000	      0.00000000	      0.00000000	     -0.00000000	     -0.00000000
      1.26000000	     -0.39054984	      7.46250562	    -89.63808359	      0.28545062	      0.96766320	      0.56308582	     30.86257927	     -2.62219986	     -3.96584807	     63.54698001	      1.10910403	     -3.21664574	      0.00000000	      0.00000000	     14.39369244	      3.79282144	     -0.63761818	     14.84595290	      0.25911076	      2.01920914	      0.00000000	      0.00000000	      1.99784730	      0.11902157	      0.34083814	      0.00000000	      0.00000000	      0.00000000	      0.00000000	      0.00000000	      0.00000000	      0.00000000	      0.00000000	      0.00000000	      0.00000000	      0.00000000	      0.00000000	      0.00000000	      0.00000000
      1.27000000	     -0.58388384	      7.26191548	    -89.61642981	      0.28623071	      0.96852702	      0.57080954	     31.27460142	     -2.41248597	     -4.20626332	     61.63863890	      1.07579720	     -2.45546908	      0.00000000	      0.00000000	     13.40117186	      3.66090521	     -0.49833432	     14.35202449	      0.25049008	      2.16692841	      0.00000000	      0.00000000	      1.64693359	      0.37571724	      0.18615279	      0.00000000	      0.00000000	      0.00000000	      0.00000000	      0.00000000	      0.00000000	      0.00000000	      0.00000000	      0.00000000	      0.00000000	      0.00000000	      0.00000000	      0.00000000	      0.00000000
